<svg width="199" height="22" viewBox="0 0 199 22" fill="none" xmlns="http://www.w3.org/2000/svg">
<circle cx="10.1241" cy="11.1241" r="9.75148" stroke="black" stroke-width="0.745336"/>
<circle cx="20.1862" cy="11.1241" r="9.75148" fill="black" stroke="black" stroke-width="0.745336"/>
<path d="M44.1055 7.95532C44.4619 7.37622 44.9742 6.90849 45.6424 6.55212C46.3106 6.19575 47.0753 6.01756 47.9365 6.01756C48.9611 6.01756 49.8891 6.27741 50.7206 6.79712C51.5522 7.31683 52.2055 8.05926 52.6807 9.02443C53.1707 9.9896 53.4157 11.1107 53.4157 12.3877C53.4157 13.6647 53.1707 14.7932 52.6807 15.7732C52.2055 16.7384 51.5522 17.4882 50.7206 18.0228C49.8891 18.5425 48.9611 18.8023 47.9365 18.8023C47.0604 18.8023 46.2957 18.6316 45.6424 18.29C44.989 17.9337 44.4767 17.4659 44.1055 16.8868V18.6241H40.2968V2.14204H44.1055V7.95532ZM49.5402 12.3877C49.5402 11.4374 49.2729 10.6949 48.7383 10.1604C48.2186 9.61096 47.5727 9.33626 46.8006 9.33626C46.0433 9.33626 45.3974 9.61096 44.8628 10.1604C44.3431 10.7098 44.0833 11.4596 44.0833 12.4099C44.0833 13.3603 44.3431 14.1101 44.8628 14.6595C45.3974 15.2089 46.0433 15.4836 46.8006 15.4836C47.5579 15.4836 48.2038 15.2089 48.7383 14.6595C49.2729 14.0953 49.5402 13.338 49.5402 12.3877ZM66.4613 12.2095C66.4613 12.5659 66.439 12.9371 66.3945 13.3231H57.7748C57.8342 14.0953 58.0792 14.6892 58.5098 15.105C58.9553 15.5059 59.4972 15.7064 60.1357 15.7064C61.0861 15.7064 61.7468 15.3055 62.118 14.5036H66.1717C65.9639 15.3203 65.5852 16.0553 65.0358 16.7087C64.5013 17.362 63.8256 17.8743 63.009 18.2455C62.1923 18.6167 61.2791 18.8023 60.2694 18.8023C59.0518 18.8023 57.9678 18.5425 57.0175 18.0228C56.0672 17.5031 55.3247 16.7606 54.7902 15.7955C54.2556 14.8303 53.9884 13.7018 53.9884 12.4099C53.9884 11.1181 54.2482 9.9896 54.7679 9.02443C55.3025 8.05926 56.0449 7.31683 56.9952 6.79712C57.9455 6.27741 59.0369 6.01756 60.2694 6.01756C61.4721 6.01756 62.5412 6.26999 63.4767 6.77485C64.4122 7.27971 65.1398 7.99987 65.6595 8.93534C66.194 9.87081 66.4613 10.9622 66.4613 12.2095ZM62.5635 11.2072C62.5635 10.5539 62.3408 10.0341 61.8953 9.64808C61.4498 9.26201 60.893 9.06898 60.2248 9.06898C59.5863 9.06898 59.0444 9.25459 58.5989 9.62581C58.1683 9.99703 57.901 10.5242 57.7971 11.2072H62.5635ZM74.7293 15.3945V18.6241H72.7916C71.4106 18.6241 70.3341 18.29 69.562 17.6219C68.7898 16.9388 68.4038 15.8326 68.4038 14.3032V9.35853H66.8892V6.19575H68.4038V3.1666H72.2125V6.19575H74.7071V9.35853H72.2125V14.3477C72.2125 14.7189 72.3016 14.9862 72.4797 15.1495C72.6579 15.3129 72.9549 15.3945 73.3707 15.3945H74.7293ZM83.1096 15.3945V18.6241H81.1718C79.7909 18.6241 78.7144 18.29 77.9422 17.6219C77.1701 16.9388 76.784 15.8326 76.784 14.3032V9.35853H75.2694V6.19575H76.784V3.1666H80.5927V6.19575H83.0873V9.35853H80.5927V14.3477C80.5927 14.7189 80.6818 14.9862 80.86 15.1495C81.0382 15.3129 81.3352 15.3945 81.7509 15.3945H83.1096ZM96.2786 12.2095C96.2786 12.5659 96.2563 12.9371 96.2117 13.3231H87.592C87.6514 14.0953 87.8964 14.6892 88.3271 15.105C88.7725 15.5059 89.3145 15.7064 89.953 15.7064C90.9033 15.7064 91.5641 15.3055 91.9353 14.5036H95.989C95.7811 15.3203 95.4025 16.0553 94.8531 16.7087C94.3185 17.362 93.6429 17.8743 92.8262 18.2455C92.0096 18.6167 91.0964 18.8023 90.0866 18.8023C88.869 18.8023 87.7851 18.5425 86.8348 18.0228C85.8844 17.5031 85.142 16.7606 84.6075 15.7955C84.0729 14.8303 83.8056 13.7018 83.8056 12.4099C83.8056 11.1181 84.0655 9.9896 84.5852 9.02443C85.1197 8.05926 85.8622 7.31683 86.8125 6.79712C87.7628 6.27741 88.8542 6.01756 90.0866 6.01756C91.2894 6.01756 92.3585 6.26999 93.294 6.77485C94.2294 7.27971 94.957 7.99987 95.4767 8.93534C96.0113 9.87081 96.2786 10.9622 96.2786 12.2095ZM92.3808 11.2072C92.3808 10.5539 92.158 10.0341 91.7126 9.64808C91.2671 9.26201 90.7103 9.06898 90.0421 9.06898C89.4036 9.06898 88.8616 9.25459 88.4162 9.62581C87.9855 9.99703 87.7183 10.5242 87.6143 11.2072H92.3808ZM101.428 8.26715C101.874 7.5841 102.431 7.04955 103.099 6.66348C103.767 6.26257 104.509 6.06211 105.326 6.06211V10.0935H104.279C103.329 10.0935 102.616 10.3014 102.141 10.7172C101.666 11.1181 101.428 11.8308 101.428 12.8554V18.6241H97.6196V6.19575H101.428V8.26715Z" fill="black"/>
<path d="M108.384 12.4099C108.384 11.1181 108.644 9.9896 109.163 9.02443C109.698 8.05926 110.433 7.31683 111.368 6.79712C112.319 6.27741 113.403 6.01756 114.62 6.01756C116.179 6.01756 117.479 6.4259 118.518 7.24258C119.572 8.05926 120.263 9.21004 120.589 10.6949H116.536C116.194 9.7446 115.533 9.26944 114.553 9.26944C113.855 9.26944 113.299 9.54414 112.883 10.0935C112.467 10.6281 112.259 11.4002 112.259 12.4099C112.259 13.4197 112.467 14.1992 112.883 14.7486C113.299 15.2832 113.855 15.5505 114.553 15.5505C115.533 15.5505 116.194 15.0753 116.536 14.125H120.589C120.263 15.5802 119.572 16.7235 118.518 17.555C117.464 18.3866 116.164 18.8023 114.62 18.8023C113.403 18.8023 112.319 18.5425 111.368 18.0228C110.433 17.5031 109.698 16.7606 109.163 15.7955C108.644 14.8303 108.384 13.7018 108.384 12.4099ZM127.616 18.8023C126.398 18.8023 125.299 18.5425 124.319 18.0228C123.354 17.5031 122.589 16.7606 122.025 15.7955C121.476 14.8303 121.201 13.7018 121.201 12.4099C121.201 11.133 121.483 10.0119 122.048 9.04671C122.612 8.06669 123.384 7.31683 124.364 6.79712C125.344 6.27741 126.443 6.01756 127.66 6.01756C128.878 6.01756 129.977 6.27741 130.957 6.79712C131.937 7.31683 132.709 8.06669 133.273 9.04671C133.837 10.0119 134.12 11.133 134.12 12.4099C134.12 13.6869 133.83 14.8154 133.251 15.7955C132.687 16.7606 131.907 17.5031 130.912 18.0228C129.932 18.5425 128.833 18.8023 127.616 18.8023ZM127.616 15.5059C128.343 15.5059 128.96 15.2386 129.464 14.7041C129.984 14.1695 130.244 13.4048 130.244 12.4099C130.244 11.4151 129.992 10.6504 129.487 10.1158C128.997 9.58126 128.388 9.31398 127.66 9.31398C126.918 9.31398 126.302 9.58126 125.812 10.1158C125.322 10.6355 125.077 11.4002 125.077 12.4099C125.077 13.4048 125.314 14.1695 125.789 14.7041C126.279 15.2386 126.888 15.5059 127.616 15.5059ZM141.129 18.8023C139.912 18.8023 138.813 18.5425 137.833 18.0228C136.868 17.5031 136.103 16.7606 135.539 15.7955C134.989 14.8303 134.715 13.7018 134.715 12.4099C134.715 11.133 134.997 10.0119 135.561 9.04671C136.125 8.06669 136.897 7.31683 137.877 6.79712C138.857 6.27741 139.956 6.01756 141.174 6.01756C142.391 6.01756 143.49 6.27741 144.47 6.79712C145.45 7.31683 146.222 8.06669 146.787 9.04671C147.351 10.0119 147.633 11.133 147.633 12.4099C147.633 13.6869 147.344 14.8154 146.764 15.7955C146.2 16.7606 145.421 17.5031 144.426 18.0228C143.446 18.5425 142.347 18.8023 141.129 18.8023ZM141.129 15.5059C141.857 15.5059 142.473 15.2386 142.978 14.7041C143.498 14.1695 143.758 13.4048 143.758 12.4099C143.758 11.4151 143.505 10.6504 143 10.1158C142.51 9.58126 141.901 9.31398 141.174 9.31398C140.431 9.31398 139.815 9.58126 139.325 10.1158C138.835 10.6355 138.59 11.4002 138.59 12.4099C138.59 13.4048 138.828 14.1695 139.303 14.7041C139.793 15.2386 140.402 15.5059 141.129 15.5059ZM156.581 18.6241L152.794 13.4122V18.6241H148.985V2.14204H152.794V11.2517L156.558 6.19575H161.258L156.091 12.4322L161.302 18.6241H156.581ZM164.001 4.90391C163.333 4.90391 162.784 4.71087 162.353 4.32481C161.937 3.92389 161.729 3.43388 161.729 2.85478C161.729 2.26083 161.937 1.77082 162.353 1.38475C162.784 0.983837 163.333 0.783379 164.001 0.783379C164.655 0.783379 165.189 0.983837 165.605 1.38475C166.035 1.77082 166.251 2.26083 166.251 2.85478C166.251 3.43388 166.035 3.92389 165.605 4.32481C165.189 4.71087 164.655 4.90391 164.001 4.90391ZM165.894 6.19575V18.6241H162.086V6.19575H165.894ZM179.702 12.2095C179.702 12.5659 179.68 12.9371 179.635 13.3231H171.015C171.075 14.0953 171.32 14.6892 171.75 15.105C172.196 15.5059 172.738 15.7064 173.376 15.7064C174.327 15.7064 174.988 15.3055 175.359 14.5036H179.412C179.205 15.3203 178.826 16.0553 178.277 16.7087C177.742 17.362 177.066 17.8743 176.25 18.2455C175.433 18.6167 174.52 18.8023 173.51 18.8023C172.292 18.8023 171.209 18.5425 170.258 18.0228C169.308 17.5031 168.565 16.7606 168.031 15.7955C167.496 14.8303 167.229 13.7018 167.229 12.4099C167.229 11.1181 167.489 9.9896 168.009 9.02443C168.543 8.05926 169.286 7.31683 170.236 6.79712C171.186 6.27741 172.278 6.01756 173.51 6.01756C174.713 6.01756 175.782 6.26999 176.717 6.77485C177.653 7.27971 178.38 7.99987 178.9 8.93534C179.435 9.87081 179.702 10.9622 179.702 12.2095ZM175.804 11.2072C175.804 10.5539 175.581 10.0341 175.136 9.64808C174.691 9.26201 174.134 9.06898 173.466 9.06898C172.827 9.06898 172.285 9.25459 171.84 9.62581C171.409 9.99703 171.142 10.5242 171.038 11.2072H175.804ZM186.099 18.8023C185.015 18.8023 184.05 18.6167 183.204 18.2455C182.357 17.8743 181.689 17.3694 181.199 16.7309C180.709 16.0776 180.434 15.35 180.375 14.5482H184.139C184.184 14.9788 184.384 15.3277 184.74 15.595C185.097 15.8623 185.535 15.9959 186.055 15.9959C186.53 15.9959 186.893 15.9068 187.146 15.7286C187.413 15.5356 187.547 15.2906 187.547 14.9936C187.547 14.6373 187.361 14.3774 186.99 14.2141C186.619 14.0359 186.017 13.8428 185.186 13.635C184.295 13.4271 183.553 13.2118 182.959 12.989C182.365 12.7515 181.852 12.3877 181.422 11.8977C180.991 11.3928 180.776 10.7172 180.776 9.87081C180.776 9.15807 180.969 8.51215 181.355 7.93305C181.756 7.3391 182.335 6.87136 183.092 6.52984C183.864 6.18832 184.778 6.01756 185.832 6.01756C187.391 6.01756 188.616 6.40363 189.507 7.17576C190.413 7.9479 190.932 8.97246 191.066 10.2495H187.547C187.487 9.81884 187.294 9.47732 186.968 9.22489C186.656 8.97246 186.24 8.84625 185.72 8.84625C185.275 8.84625 184.933 8.93534 184.696 9.11352C184.458 9.27686 184.34 9.50702 184.34 9.80399C184.34 10.1604 184.525 10.4276 184.896 10.6058C185.282 10.784 185.876 10.9622 186.678 11.1404C187.599 11.378 188.349 11.6155 188.928 11.8531C189.507 12.0758 190.012 12.4471 190.442 12.9668C190.888 13.4716 191.118 14.1547 191.133 15.0159C191.133 15.7435 190.925 16.3968 190.509 16.9759C190.108 17.5402 189.522 17.9856 188.75 18.3123C187.992 18.639 187.109 18.8023 186.099 18.8023Z" fill="#73798C"/>
<circle cx="196.346" cy="16.0931" r="2.02483" stroke="black" stroke-width="1.01241"/>
</svg>
